<svg width="250" height="250" viewBox="0 0 250 250" fill="none" xmlns="http://www.w3.org/2000/svg">
<path d="M166.052 187.115C168.448 167.542 155.844 155.063 122.562 144.438C106.437 138.938 98.8436 131.729 99.0206 121.823C99.6977 110.823 109.937 102.813 123.521 102.552C134.219 102.661 144.654 105.883 153.552 111.823C154.76 112.573 155.604 112.448 156.291 111.406C157.229 109.906 159.573 106.271 160.354 104.948C160.885 104.115 160.989 103.01 159.646 102.031C157.719 100.604 152.312 97.7083 149.406 96.4896C141.132 92.9785 132.238 91.1581 123.25 91.1354C103.354 91.2187 87.6977 103.792 86.3748 120.573C85.5311 132.688 91.5311 142.521 104.396 150.021C107.135 151.604 121.896 157.479 127.771 159.313C146.25 165.063 155.844 175.375 153.583 187.406C151.531 198.312 140.052 205.365 124.229 205.573C111.698 205.094 100.406 199.979 91.6561 193.177L90.1873 192.031C89.104 191.198 87.9165 191.25 87.1977 192.344C86.6769 193.146 83.2811 198.042 82.4269 199.323C81.6248 200.448 82.0623 201.073 82.8956 201.76C86.5415 204.813 91.4061 208.146 94.7081 209.833C103.856 214.491 113.917 217.077 124.177 217.406C131.564 217.756 138.938 216.498 145.791 213.719C157.198 208.875 164.573 199.198 166.052 187.115ZM125 14.5938C103.458 14.5938 85.8956 34.9062 85.0727 60.3229H164.916C164.073 34.8958 146.521 14.5833 125 14.5833V14.5938ZM206.781 249.99L205.948 250L41.5311 249.979C30.3436 249.562 22.1248 240.5 20.9998 229.24L20.8956 227.208L13.5311 65.4792C13.4813 64.8291 13.5649 64.1758 13.7769 63.5593C13.9889 62.9427 14.3247 62.3761 14.7637 61.8941C15.2028 61.4122 15.7357 61.0251 16.3298 60.7567C16.924 60.4883 17.5667 60.3442 18.2186 60.3333H70.0415C71.3019 26.75 95.4165 0 125 0C154.562 0 178.677 26.7604 179.948 60.3125H231.698C232.346 60.313 232.988 60.4455 233.584 60.7019C234.18 60.9583 234.717 61.3332 235.163 61.8039C235.61 62.2745 235.955 62.8311 236.18 63.4396C236.404 64.0482 236.502 64.696 236.469 65.3437L228.416 227.719L228.344 229.083C227.364 240.479 218.146 249.677 206.781 249.979V249.99Z" fill="#FF9A62"/>
</svg>
